<svg xmlns="http://www.w3.org/2000/svg" width="980" height="620" viewBox="0 0 980 620" role="img" aria-label="buy2 and sell2 RPM stacks">
  <style>
    text { font-family: Segoe UI, Arial, sans-serif; }
    .title { font-size: 16px; font-weight: 700; }
    .sub { font-size: 12px; fill: #444; }
    .lab { font-size: 11px; fill: #333; }
    .zero { stroke: #88c; stroke-width: 1; }
    .ema { fill: none; stroke: #d44; stroke-width: 2; }
    .rpm { fill: none; stroke: #7aa000; stroke-width: 2.4; }
    .rpm2 { fill: none; stroke: #a3c; stroke-width: 2.4; }
  </style>
  <rect width="980" height="620" fill="#f7f7f4"/>
  <text x="24" y="28" class="title">buy2 / sell2  Si M1 18:55</text>
  <text x="24" y="48" class="sub">current =865 =C;O, 53> EMA 5IQ 2KH5 =C;O 8 ?0405B; small 2KH5 =C;O 8 @0ABQB; middle 2KH5 =C;O, => C65 =865 A2>59 EMA. sell2  75@:0;>.</text>
  <text x="70" y="82" class="title" fill="#7aa000">buy2</text>
  <text x="560" y="82" class="title" fill="#a3c">sell2</text>

  <g transform="translate(20,96)">
    <rect width="450" height="110" fill="#fff" stroke="#ddd"/>
    <text x="8" y="16" class="lab">current  EMA 2KH5 0, B@5=4 falling</text>
    <line x1="20" y1="58" x2="430" y2="58" class="zero"/>
    <path d="M20,34 C160,38 300,44 430,50" class="ema"/>
    <path d="M20,78 C160,82 300,88 430,94" class="rpm"/>
    <text x="8" y="100" class="lab">RPM =865 0 8 =865 EMA; EMA 2KH5 0, ?0405B (5 10@>2)</text>
  </g>
  <g transform="translate(20,216)">
    <rect width="450" height="110" fill="#fff" stroke="#ddd"/>
    <text x="8" y="16" class="lab">small  rising_above_ema</text>
    <line x1="20" y1="78" x2="430" y2="78" class="zero"/>
    <path d="M20,58 C160,52 300,44 430,36" class="ema"/>
    <path d="M20,50 C160,40 300,28 430,18" class="rpm"/>
    <text x="8" y="100" class="lab">2KH5 0, 2KH5 EMA, @0ABQB; EMA 2KH5 0, B@5=4 rising</text>
  </g>
  <g transform="translate(20,336)">
    <rect width="450" height="110" fill="#fff" stroke="#ddd"/>
    <text x="8" y="16" class="lab">middle  =865 A2>59 EMA</text>
    <line x1="20" y1="78" x2="430" y2="78" class="zero"/>
    <path d="M20,40 C160,44 300,50 430,56" class="ema"/>
    <path d="M20,52 C160,58 300,66 430,74" class="rpm"/>
    <text x="8" y="100" class="lab">2KH5 0, =865 EMA; EMA 2KH5 0, B@5=4 falling</text>
  </g>
  <g transform="translate(20,456)">
    <rect width="450" height="140" fill="#fff" stroke="#ddd"/>
    <text x="8" y="16" class="lab">hist  above_0 hist_shrinking</text>
    <line x1="20" y1="118" x2="430" y2="118" class="zero"/>
    <rect x="50" y="32" width="28" height="86" fill="#7aa000" opacity="0.7"/>
    <rect x="110" y="46" width="28" height="72" fill="#7aa000" opacity="0.7"/>
    <rect x="170" y="60" width="28" height="58" fill="#7aa000" opacity="0.7"/>
    <rect x="230" y="74" width="28" height="44" fill="#7aa000" opacity="0.7"/>
    <rect x="290" y="88" width="28" height="30" fill="#7aa000" opacity="0.7"/>
    <rect x="350" y="100" width="28" height="18" fill="#7aa000" opacity="0.7"/>
    <text x="8" y="132" class="lab">2KH5 0, A68<05BAO</text>
  </g>

  <g transform="translate(510,96)">
    <rect width="450" height="110" fill="#fff" stroke="#ddd"/>
    <text x="8" y="16" class="lab">current  EMA =865 0, B@5=4 rising</text>
    <line x1="20" y1="52" x2="430" y2="52" class="zero"/>
    <path d="M20,76 C160,72 300,66 430,60" class="ema"/>
    <path d="M20,32 C160,28 300,22 430,16" class="rpm2"/>
    <text x="8" y="100" class="lab">RPM 2KH5 0 8 2KH5 EMA; EMA =865 0, @0ABQB (5 10@>2)</text>
  </g>
  <g transform="translate(510,216)">
    <rect width="450" height="110" fill="#fff" stroke="#ddd"/>
    <text x="8" y="16" class="lab">small  falling_below_ema</text>
    <line x1="20" y1="34" x2="430" y2="34" class="zero"/>
    <path d="M20,52 C160,58 300,66 430,74" class="ema"/>
    <path d="M20,60 C160,72 300,84 430,94" class="rpm2"/>
    <text x="8" y="100" class="lab">=865 0, =865 EMA, ?0405B; EMA =865 0, B@5=4 falling</text>
  </g>
  <g transform="translate(510,336)">
    <rect width="450" height="110" fill="#fff" stroke="#ddd"/>
    <text x="8" y="16" class="lab">middle  2KH5 A2>59 EMA</text>
    <line x1="20" y1="34" x2="430" y2="34" class="zero"/>
    <path d="M20,70 C160,66 300,60 430,54" class="ema"/>
    <path d="M20,58 C160,52 300,44 430,38" class="rpm2"/>
    <text x="8" y="100" class="lab">=865 0, 2KH5 EMA; EMA =865 0, B@5=4 rising</text>
  </g>
  <g transform="translate(510,456)">
    <rect width="450" height="140" fill="#fff" stroke="#ddd"/>
    <text x="8" y="16" class="lab">hist  below_0 hist_shrinking</text>
    <line x1="20" y1="28" x2="430" y2="28" class="zero"/>
    <rect x="50" y="28" width="28" height="86" fill="#a3c" opacity="0.7"/>
    <rect x="110" y="28" width="28" height="72" fill="#a3c" opacity="0.7"/>
    <rect x="170" y="28" width="28" height="58" fill="#a3c" opacity="0.7"/>
    <rect x="230" y="28" width="28" height="44" fill="#a3c" opacity="0.7"/>
    <rect x="290" y="28" width="28" height="30" fill="#a3c" opacity="0.7"/>
    <rect x="350" y="28" width="28" height="18" fill="#a3c" opacity="0.7"/>
    <text x="8" y="132" class="lab">=865 0, A68<05BAO</text>
  </g>
</svg>
